# xmcd CD database file
#
# Track frame offsets:
#	182
#	47325
#	67105
#	99652
#
# Disc length: 1507 seconds
#
# Revision: 0
# Processed by: cddbd v1.4PL0 Copyright (c) Steve Scherf et al.
# Submitted via: CDex 1.40Beta9
#
DISCID=2f05e104
DTITLE=Eric Clapton - Instrumental Blues Jams
DYEAR=1999
DGENRE=Blues
TTITLE0=Blues in A
TTITLE1=Eric After Hour Blues
TTITLE2=B Minor Jam
TTITLE3=Blues
EXTD=YEAR: 1999 ID3G: 0
EXTT0=
EXTT1=
EXTT2=
EXTT3=
PLAYORDER=
